<svg width="0" height="0" class="hidden">
  <symbol fill="none" xmlns="http://www.w3.org/2000/svg" viewBox="0 0 190 48" id="logo">
    <path d="M20.9506 38C26.7906 38 30.4706 34.84 30.4706 29.72C30.4706 26.4 28.9906 24.04 26.1106 22.88C27.9506 21.68 28.9106 19.56 28.9106 17.16C28.9106 12.8 25.2706 10.12 19.4306 10.12H2.55063V38H20.9506ZM9.87063 15.4H18.6706C20.5506 15.4 21.5506 16.4 21.5506 18.2C21.5506 20.08 20.5506 21.08 18.6706 21.08H9.87063V15.4ZM9.87063 26.24H19.6306C21.9106 26.24 23.1106 27.28 23.1106 29.32C23.1106 31.48 21.8706 32.72 19.6306 32.72H9.87063V26.24ZM56.7616 38V32.72H40.9616V26.64H55.6816V21.28H40.9616V15.4H56.7616V10.12H33.7216V38H56.7616ZM74.9975 38C84.7975 38 90.2375 33.16 90.2375 24.28C90.2375 15.24 84.6375 10.12 75.0775 10.12H60.5575V38H74.9975ZM67.8775 16.08H74.1575C78.2375 16.08 82.8775 17.48 82.8775 24.08C82.8775 32.04 75.7975 32.04 73.5575 32.04H67.8775V16.08ZM114.088 27.24C117.528 26.24 120.008 23.92 120.008 18.88C120.008 11.64 114.768 10.12 108.288 10.12H93.4481V38H100.648V27.92H106.808L112.648 38H120.928L114.088 27.24ZM108.008 15.4C110.048 15.4 112.728 15.64 112.728 18.96C112.728 22.32 110.088 22.6 108.008 22.6H100.648V15.4H108.008ZM139.241 38.68C149.641 38.68 155.841 32.96 155.841 24.08C155.841 15.16 149.761 9.44 139.241 9.44C128.841 9.44 122.641 15.24 122.641 24.08C122.641 32.92 128.841 38.68 139.241 38.68ZM139.241 32.72C133.161 32.72 129.881 29.4 129.881 24.08C129.881 18.76 133.121 15.4 139.241 15.4C145.321 15.4 148.521 18.76 148.521 24.08C148.521 29.36 145.321 32.72 139.241 32.72ZM176.034 20.96L189.314 10.12H179.194L166.274 21.32V10.12H159.034V38H166.274V28.92L170.914 25.16L180.674 38H189.514L176.034 20.96Z" fill="black"></path>
  </symbol>
  <symbol fill="none" xmlns="http://www.w3.org/2000/svg" viewBox="0 0 48 48" id="logo-mobile">
    <path d="M14.5361 22.2528C19.1398 22.2528 22.0406 19.7306 22.0406 15.644C22.0406 12.9941 20.8741 11.1104 18.6037 10.1846C20.0542 9.22676 20.8109 7.53467 20.8109 5.61906C20.8109 2.13908 17.9415 0 13.3379 0H0.0314941V22.2528H14.5361ZM5.80182 4.21431H12.7388C14.2208 4.21431 15.0091 5.01247 15.0091 6.44915C15.0091 7.9497 14.2208 8.74787 12.7388 8.74787H5.80182V4.21431ZM5.80182 12.8664H13.4956C15.2929 12.8664 16.2388 13.6965 16.2388 15.3247C16.2388 17.0488 15.2613 18.0385 13.4956 18.0385H5.80182V12.8664Z" fill="black"></path>
    <path d="M35.9863 22.2528C43.7117 22.2528 47.9999 18.3897 47.9999 11.302C47.9999 4.08659 43.5854 0 36.0494 0H24.6033V22.2528H35.9863ZM30.3736 4.75706H35.3243C38.5404 4.75706 42.198 5.87448 42.198 11.1424C42.198 17.4957 36.6169 17.4957 34.8513 17.4957H30.3736V4.75706Z" fill="black"></path>
    <path d="M16.2704 39.4118C18.9822 38.6137 20.937 36.7621 20.937 32.7393C20.937 26.9606 16.8064 25.7473 11.6983 25.7473H0V48.0001H5.67572V39.9546H10.5316L15.1353 48.0001H21.6624L16.2704 39.4118ZM11.4776 29.9617C13.0857 29.9617 15.1983 30.1532 15.1983 32.8032C15.1983 35.4849 13.1172 35.7085 11.4776 35.7085H5.67572V29.9617H11.4776Z" fill="black"></path>
    <path d="M37.2958 34.3995L47.7644 25.7473H39.7868L29.6022 34.6868V25.7473H23.8948V48.0001H29.6022V40.7529L33.2598 37.7518L40.9536 48.0001H47.9221L37.2958 34.3995Z" fill="black"></path>
  </symbol>
</svg>